# xmcd
#
# Track frame offsets: 
#        150
#        15674
#        19119
#        31565
#        54838
#        76283
#        82875
#        97303
#        107826
#        118025
#        131063
#        145330
#
# Disc length: 2161 seconds
#
# Revision: 0
# Processed by: cddbd v1.5.2PL0 Copyright (c) Steve Scherf et al.
# Submitted via: ExactAudioCopy v0.95a5
#
DISCID=91086f0c
DTITLE=Vitesse - Herman Brood in Vitesse 1975
DYEAR=1978
DGENRE=Rock and Roll
TTITLE0=Funky but clean
TTITLE1=Speedo
TTITLE2=Stay a little stranger
TTITLE3=You can't beat me
TTITLE4=Pamela
TTITLE5=Back on the corner
TTITLE6=Do you wanna dance
TTITLE7=Push it out
TTITLE8=Goin' to the city
TTITLE9=Showbiz blues
TTITLE10=Smashed
TTITLE11=Confusion
EXTD=LP digitized by Fonos: Het Nederlands Muziekarchief.\nPaul Bagmei
EXTD=jer, Herman van Boeyen, Rob ten Bokum, Herman Brood, Rob van Dons
EXTD=elaar
EXTT0=Peter Smid, Herman Brood, Herman van Boeyen
EXTT1=Esther Navarro
EXTT2=Pé Hawinkels, Herman Brood
EXTT3=Rob ten Bokum, Herman Brood, Herman van Boeyen
EXTT4=Peter Smid, Herman Brood, Herman van Boeyen, Pé Hawinkels
EXTT5=Mose Allison
EXTT6=Peter Smid, Herman Brood, Pé Hawinkels
EXTT7=Herman Brood
EXTT8=Mose Allison
EXTT9=Herman Brood
EXTT10=Mose Allison
EXTT11=Allen Toussaint
PLAYORDER=
